#!OML:ASF E:\Style4\Style4.ASF
:FULLY-SPECIFIED
:DEGREES
1977
root -0.980968 17 -1.32325 0.586217 15.1779 4.76694
lowerback 11.5587 5.39828 2.63979
upperback 7.23894 7.43885 -0.947855
thorax 1.60906 3.8735 -3.15618
lowerneck -3.33815 -3.39461 -4.37253
upperneck -8.77183 -4.22218 3.53134
head -2.02438 -2.0284 1.89586
rclavicle 5.725e-014 -1.66979e-014
rhumerus 59.1607 23.5983 -32.5531
rradius 95.117
rwrist -25.7573
rhand -43.0551 49.0548
rfingers 7.12502
rthumb -15.9114 19.6884
lclavicle 5.725e-014 -1.66979e-014
lhumerus 44.8782 -19.6401 51.1868
lradius 105.015
lwrist 23.3715
lhand -33.1675 23.0605
lfingers 7.12502
lthumb -6.37593 52.9446
rfemur -22.5248 -12.1456 17.2365
rtibia 52.1546
rfoot -28.1485 -20.2026
rtoes -6.98996
lfemur -24.0789 -7.28895 -20.6683
ltibia 46.1387
lfoot -20.311 1.57668
ltoes -18.4116
1978
root -0.995307 17.0159 -1.31333 0.669912 15.5513 4.83912
lowerback 11.4139 5.44763 2.5881
upperback 7.21635 7.4985 -0.971026
thorax 1.66384 3.90316 -3.14233
lowerneck -3.35071 -3.48018 -4.5063
upperneck -8.59345 -4.33211 3.62316
head -1.9551 -2.08245 1.94493
rclavicle 8.46823e-014 -3.81667e-014
rhumerus 59.866 22.8569 -32.1907
rradius 94.7531
rwrist -26.2085
rhand -43.5678 48.2741
rfingers 7.12502
rthumb -16.4051 18.9478
lclavicle 8.46823e-014 -3.81667e-014
lhumerus 45.4693 -18.7566 50.6668
lradius 104.594
lwrist 23.697
lhand -33.186 23.1411
lfingers 7.12502
lthumb -6.3938 53.0246
rfemur -22.3652 -12.4051 17.2128
rtibia 51.9101
rfoot -28.1203 -20.2975
rtoes -7.02932
lfemur -24.0011 -7.4692 -20.6863
ltibia 45.8313
lfoot -20.147 1.46238
ltoes -18.7309
1979
root -1.00987 17.0288 -1.30469 0.779891 15.877 4.84445
lowerback 11.2332 5.47823 2.54216
upperback 7.15136 7.53248 -0.953963
thorax 1.6862 3.9173 -3.08711
lowerneck -3.26944 -3.52984 -4.69427
upperneck -8.43565 -4.398 3.71064
head -1.90992 -2.11359 2.00512
rclavicle 6.67916e-014 -2.3059e-014
rhumerus 60.6563 22.223 -31.8312
rradius 94.3293
rwrist -26.7856
rhand -45.1117 46.0123
rfingers 7.12502
rthumb -17.8911 16.8152
lclavicle 6.67916e-014 -2.3059e-014
lhumerus 45.8509 -17.8431 50.2476
lradius 104.073
lwrist 23.8106
lhand -33.2769 23.0262
lfingers 7.12502
lthumb -6.48152 52.907
rfemur -22.2757 -12.5843 17.2814
rtibia 51.6724
rfoot -28.1471 -20.3555
rtoes -6.94004
lfemur -23.9951 -7.61749 -20.6154
ltibia 45.5468
lfoot -19.9726 1.30796
ltoes -18.7873
1980
root -1.02364 17.0402 -1.29365 0.847467 16.1718 4.88127
lowerback 11.1222 5.50524 2.45284
upperback 7.05929 7.55874 -0.940916
thorax 1.63662 3.92453 -3.02153
lowerneck -3.16381 -3.56748 -4.9064
upperneck -8.20263 -4.4512 3.79085
head -1.84467 -2.13872 2.06632
rclavicle -8.26944e-014 1.43125e-014
rhumerus 61.4495 21.6713 -31.5122
rradius 93.8659
rwrist -27.3963
rhand -43.3067 48.1579
rfingers 7.12502
rthumb -16.1537 18.811
lclavicle -8.26944e-014 1.43125e-014
lhumerus 46.2396 -16.8759 49.9017
lradius 103.551
lwrist 24.1966
lhand -32.8538 22.6701
lfingers 7.12502
lthumb -6.07303 52.5631
rfemur -22.1497 -12.7292 17.2943
rtibia 51.4445
rfoot -28.1106 -20.4854
rtoes -6.96065
lfemur -23.9252 -7.77161 -20.5952
ltibia 45.2736
lfoot -19.8087 1.22029
ltoes -18.9744
1981
root -1.03679 17.0501 -1.28455 0.895082 16.4462 4.88847
lowerback 11.1163 5.62557 2.51276
upperback 6.93219 7.72388 -1.02809
thorax 1.53896 4.00811 -3.16416
lowerneck -3.05698 -3.7053 -4.78673
upperneck -7.97351 -4.64746 3.79006
head -1.7819 -2.24337 2.04208
rclavicle -3.39922e-014 -8.74653e-015
rhumerus 61.8562 20.9567 -31.401
rradius 93.3866
rwrist -27.9257
rhand -42.5104 49.0482
rfingers 7.12502
rthumb -15.3868 19.6408
lclavicle -3.39922e-014 -8.74653e-015
lhumerus 46.7759 -16.1678 49.4283
lradius 103.157
lwrist 24.72
lhand -32.3735 22.4248
lfingers 7.12502
lthumb -5.6094 52.3305
rfemur -22.0266 -12.852 17.3364
rtibia 51.2317
rfoot -28.1113 -20.5454
rtoes -6.59283
lfemur -23.8602 -7.89253 -20.5466
ltibia 45.0258
lfoot -19.6295 1.06268
ltoes -18.7643
